o Cylinder
v 0.261489 -0.177877 0
v 0.165972 -0.203714 0
v 0.210761 -0.224729 0
v 0.25852 -0.211811 0
v 0.185335 -0.171215 -0.184553
v 0.116925 -0.199423 -0.118862
v 0.148161 -0.219252 -0.151707
v 0.182366 -0.205148 -0.184553
v 0.001484 -0.15513 -0.260997
v -0.001484 -0.189063 -0.168096
v -0.002969 -0.20603 -0.214547
v -0.001484 -0.189063 -0.260997
v -0.182366 -0.139045 -0.184553
v -0.119894 -0.178704 -0.118862
v -0.154099 -0.192808 -0.151707
v -0.185335 -0.172979 -0.184553
v -0.25852 -0.132382 0
v -0.168941 -0.174413 0
v -0.216699 -0.187331 0
v -0.261489 -0.166316 0
v -0.182366 -0.139045 0.184553
v -0.119894 -0.178704 0.118862
v -0.154099 -0.192808 0.151707
v -0.185335 -0.172979 0.184553
v 0.001484 -0.15513 0.260997
v -0.001484 -0.189063 0.168096
v -0.002969 -0.20603 0.214547
v -0.001484 -0.189063 0.260997
v 0.185335 -0.171215 0.184553
v 0.116925 -0.199423 0.118862
v 0.148161 -0.219252 0.151708
v 0.182366 -0.205148 0.184553
v 0.059333 -0.075538 0
v 0.044915 -0.074277 -0.034942
v 0.010106 -0.071232 -0.049416
v -0.024704 -0.068186 -0.034942
v -0.039122 -0.066925 0
v -0.024704 -0.068186 0.034942
v 0.010106 -0.071232 0.049416
v 0.044915 -0.074277 0.034942
v 0.00458 -0.119744 -0.20643
v 0.149993 -0.132466 -0.145968
v 0.00458 -0.119744 0.20643
v -0.140833 -0.107022 0.145968
v 0.210225 -0.137736 0
v 0.149993 -0.132466 0.145968
v -0.201064 -0.101752 0
v -0.140833 -0.107022 -0.145968
v 0.033054 -0.5 -0.0798
v 0.025067 -0.177627 -0.060518
v 0.0798 -0.5 -0.033054
v 0.060518 -0.177627 -0.025067
v 0.0798 -0.5 0.033054
v 0.060518 -0.177627 0.025067
v 0.033054 -0.5 0.0798
v 0.025067 -0.177627 0.060518
v -0.033054 -0.5 0.0798
v -0.025067 -0.177627 0.060518
v -0.0798 -0.5 0.033054
v -0.060518 -0.177627 0.025067
v -0.0798 -0.5 -0.033054
v -0.060518 -0.177627 -0.025067
v -0.033054 -0.5 -0.0798
v -0.025067 -0.177627 -0.060518
v 0.014323 -0.253674 -0.065067
v 0.012105 -0.382623 -0.07278
v 0.052438 -0.253674 -0.026952
v 0.054739 -0.382623 -0.030146
v 0.052438 -0.253674 0.026952
v 0.054739 -0.382623 0.030146
v 0.014323 -0.253674 0.065067
v 0.012105 -0.382623 0.07278
v -0.03958 -0.253674 0.065067
v -0.048187 -0.382623 0.07278
v -0.077695 -0.253674 0.026952
v -0.09082 -0.382623 0.030146
v -0.077695 -0.253674 -0.026952
v -0.09082 -0.382623 -0.030146
v -0.03958 -0.253674 -0.065067
v -0.048187 -0.382623 -0.07278
vt 0.26101 0.91792
vt 0.235559 0.983636
vt 0.01635 0.764426
vt 0.080814 0.737724
vt 0.545568 0.235207
vt 0.764778 0.454417
vt 0.690996 0.484978
vt 0.517617 0.311599
vt 0.235559 0.235207
vt 0.515845 0.302693
vt 0.26101 0.302693
vt 0.578125 0.234375
vt 0.765625 0.234375
vt 0.765625 0.3125
vt 0.578125 0.3125
vt 0.015625 0.234375
vt 0.203125 0.234375
vt 0.203125 0.3125
vt 0.015625 0.3125
vt 0.390625 0.3125
vt 0.578125 0.390625
vt 0.390625 0.390625
vt 0.01635 0.454417
vt 0.080814 0.482889
vt 0.545569 0.983636
vt 0.515845 0.91792
vt 0.099043 0.730173
vt 0.272422 0.903553
vt 0.290733 0.368408
vt 0.490395 0.368408
vt 0.14955 0.709253
vt 0.14955 0.509591
vt 0.764778 0.764426
vt 0.696041 0.737725
vt 0.696041 0.482889
vt 0.099043 0.484978
vt 0.203125 0.390625
vt 0.765625 0.390625
vt 0.272422 0.311599
vt 0.631577 0.509591
vt 0.390625 0.234375
vt 0.517617 0.903553
vt 0.690996 0.730173
vt 0.43232 0.675133
vt 0.473823 0.633629
vt 0.015625 0.390625
vt 0.490395 0.850435
vt 0.290733 0.850435
vt 0.631577 0.709253
vt 0.373624 0.533431
vt 0.332121 0.574934
vt 0.473823 0.574934
vt 0.43232 0.533431
vt 0.332121 0.63363
vt 0.373624 0.675133
vt 0.935126 0.767633
vt 0.998032 0.830539
vt 0.998032 0.919502
vt 0.935126 0.982408
vt 0.846164 0.982408
vt 0.783257 0.919502
vt 0.783258 0.830539
vt 0.846164 0.767633
vt 0.375 0.1875
vt 0.375 0.03125
vt 0.5 0.03125
vt 0.5 0.1875
vt 0.625 0.03125
vt 0.625 0.1875
vt 0.75 0.03125
vt 0.75 0.1875
vt 0.875 0.03125
vt 0.875 0.1875
vt 1 0.03125
vt 1 0.1875
vt 0 0.03125
vt 0.125 0.03125
vt 0.125 0.1875
vt 0 0.1875
vt 0.25 0.03125
vt 0.25 0.1875
vt 0.542224 0.015885
vt 0.601585 0.075246
vt 0.601585 0.159195
vt 0.542224 0.218556
vt 0.458275 0.218556
vt 0.398914 0.159195
vt 0.398914 0.075246
vt 0.458275 0.015885
vt 0.625 0.125
vt 0.5 0.125
vt 0.75 0.125
vt 0.875 0.125
vt 1 0.125
vt 0.125 0.125
vt 0 0.125
vt 0.25 0.125
vt 0.375 0.125
vn -0.147 -0.9873 0.0604
vn -0.6487 -0.4602 0.6061
vn -0.8988 -0.4384 0
vn -0.172 -0.9851 0
vn 0.6725 0.3765 0.6371
vn 0.9354 0.3535 0
vn 0.5292 0.8485 0
vn 0.3967 0.8602 0.3204
vn -0.0449 -0.5131 -0.8571
vn 0.5589 -0.5659 -0.6061
vn -0.0266 -0.9978 -0.0604
vn -0.0868 -0.9925 -0.0855
vn -0.0449 -0.5131 0.8571
vn 0.0378 0.432 0.9011
vn -0.5969 0.4876 0.6371
vn -0.6487 -0.4602 -0.6061
vn -0.5969 0.4876 -0.6371
vn 0.0378 0.432 -0.9011
vn 0.809 -0.5878 0
vn 0.6725 0.3765 -0.6371
vn -0.147 -0.9873 -0.0604
vn -0.0868 -0.9925 0.0855
vn -0.8598 0.5105 0
vn -0.3721 0.9282 0
vn -0.2406 0.9165 -0.3194
vn -0.0851 -0.9726 0.2164
vn -0.2375 -0.9592 0.153
vn 0.1305 -0.9914 0
vn 0.0674 -0.9859 0.153
vn 0.5589 -0.5659 0.6061
vn -0.0266 -0.9978 0.0604
vn -0.0017 -1 0
vn -0.2406 0.9165 0.3194
vn 0.0775 0.8884 0.4524
vn -0.3007 -0.9537 0
vn 0.0775 0.8884 -0.4524
vn 0.3967 0.8602 -0.3204
vn 0.0862 0.9787 -0.1863
vn 0.2178 0.967 -0.1322
vn -0.0851 -0.9726 -0.2164
vn 0.0674 -0.9859 -0.153
vn -0.2375 -0.9592 -0.153
vn 0.0862 0.9787 0.1863
vn -0.0446 0.9903 0.1313
vn 0.2726 0.9621 0
vn 0.2178 0.967 0.1322
vn -0.0986 0.9951 0
vn -0.0446 0.9903 -0.1313
vn -0.2735 -0.6261 -0.7302
vn -0.4025 0.0406 -0.9145
vn 0.3603 0.084 -0.929
vn 0.3356 -0.5817 -0.7409
vn 0.3699 0.0277 -0.9286
vn 0.9211 -0.0312 -0.388
vn 0.9138 0.1168 -0.3888
vn 0.9211 -0.0312 0.388
vn 0.9138 0.1168 0.3888
vn 0.3699 0.0277 0.9286
vn 0.3603 0.084 0.929
vn -0.3916 0.1057 0.914
vn -0.4025 0.0406 0.9145
vn -0.9142 0.1566 0.3738
vn -0.9272 0.0124 0.3745
vn -0.9142 0.1566 -0.3738
vn -0.9272 0.0124 -0.3745
vn -0.3916 0.1057 -0.914
vn 0.7744 -0.5521 -0.309
vn 0.7744 -0.5521 0.309
vn 0.3356 -0.5817 0.7409
vn -0.2735 -0.6261 0.7302
vn -0.6908 -0.6586 0.2981
vn -0.6908 -0.6586 -0.2981
vn 0.4167 -0.0045 -0.9091
vn 0.9258 -0.0893 -0.3674
vn 0.9258 -0.0893 0.3674
vn 0.4167 -0.0045 0.9091
vn -0.3443 0.1214 0.931
vn -0.8966 0.2122 0.3887
vn -0.8966 0.2122 -0.3887
vn -0.3443 0.1214 -0.931
s 1
f 23/1/1 24/2/2 20/3/3 19/4/4
f 29/5/5 1/6/6 45/7/7 46/8/8
f 12/9/9 8/5/10 7/10/11 11/11/12
f 24/12/2 28/13/13 25/14/14 21/15/15
f 12/16/9 16/17/16 13/18/17 9/19/18
f 4/20/19 8/15/10 5/21/20 1/22/6
f 16/23/16 12/9/9 11/11/12 15/24/21
f 28/25/13 24/2/2 23/1/1 27/26/22
f 13/2/17 17/3/23 47/27/24 48/28/25
f 10/29/26 11/11/12 7/10/11 6/30/27
f 18/31/28 19/4/4 15/24/21 14/32/29
f 4/6/19 32/33/30 31/34/31 3/35/32
f 17/3/23 21/23/15 44/36/33 47/27/24
f 32/18/30 4/20/19 1/22/6 29/37/5
f 8/5/10 4/6/19 3/35/32 7/10/11
f 8/15/10 12/14/9 9/38/18 5/21/20
f 25/9/14 29/5/5 46/8/8 43/39/34
f 6/30/27 7/10/11 3/35/32 2/40/35
f 16/17/16 20/41/3 17/20/23 13/18/17
f 31/34/31 32/33/30 28/25/13 27/26/22
f 5/33/20 9/25/18 41/42/36 42/43/37
f 41/42/36 35/44/38 34/45/39 42/43/37
f 15/24/21 11/11/12 10/29/26 14/32/29
f 20/41/3 24/12/2 21/15/15 17/20/23
f 1/6/6 5/33/20 42/43/37 45/7/7
f 19/4/4 20/3/3 16/23/16 15/24/21
f 28/19/13 32/18/30 29/37/5 25/46/14
f 26/47/40 27/26/22 23/1/1 22/48/41
f 21/23/15 25/9/14 43/39/34 44/36/33
f 9/25/18 13/2/17 48/28/25 41/42/36
f 23/1/1 19/4/4 18/31/28 22/48/41
f 2/40/35 3/35/32 31/34/31 30/49/42
f 43/39/34 39/50/43 38/51/44 44/36/33
f 45/7/7 33/52/45 40/53/46 46/8/8
f 42/43/37 34/45/39 33/52/45 45/7/7
f 46/8/8 40/53/46 39/50/43 43/39/34
f 44/36/33 38/51/44 37/54/47 47/27/24
f 47/27/24 37/54/47 36/55/48 48/28/25
f 48/28/25 36/55/48 35/44/38 41/42/36
f 35/44/38 36/55/48 37/54/47 38/51/44 39/50/43 40/53/46 33/52/45 34/45/39
f 6/56/27 2/57/35 30/58/42 26/59/40 22/60/41 18/61/28 14/62/29 10/63/26
f 63/64/49 80/65/50 66/66/51 49/67/52
f 65/66/53 67/68/54 68/69/55 66/67/51
f 67/68/54 69/70/56 70/71/57 68/69/55
f 69/70/56 71/72/58 72/73/59 70/71/57
f 71/72/58 73/74/60 74/75/61 72/73/59
f 73/76/60 75/77/62 76/78/63 74/79/61
f 75/77/62 77/80/64 78/81/65 76/78/63
f 77/80/64 79/65/66 80/64/50 78/81/65
f 49/82/52 51/83/67 53/84/68 55/85/69 57/86/70 59/87/71 61/88/72 63/89/49
f 50/66/73 52/68/74 67/90/54 65/91/53
f 52/68/74 54/70/75 69/92/56 67/90/54
f 66/66/51 68/68/55 51/69/67 49/67/52
f 54/70/75 56/72/76 71/93/58 69/92/56
f 68/68/55 70/70/57 53/71/68 51/69/67
f 56/72/76 58/74/77 73/94/60 71/93/58
f 70/70/57 72/72/59 55/73/69 53/71/68
f 58/76/77 60/77/78 75/95/62 73/96/60
f 72/72/59 74/74/61 57/75/70 55/73/69
f 60/77/78 62/80/79 77/97/64 75/95/62
f 74/76/61 76/77/63 59/78/71 57/79/70
f 62/80/79 64/65/80 79/98/66 77/97/64
f 76/77/63 78/80/65 61/81/72 59/78/71
f 31/34/31 27/26/22 26/47/40 30/49/42
f 78/80/65 80/65/50 63/64/49 61/81/72
f 79/98/66 64/65/80 50/66/73 65/91/53
f 79/65/66 65/66/53 66/67/51 80/64/50
